<?xml version="1.0" standalone="no"?>
<!DOCTYPE svg PUBLIC "-//W3C//DTD SVG 20010904//EN"
 "http://www.w3.org/TR/2001/REC-SVG-20010904/DTD/svg10.dtd">
<svg version="1.0" xmlns="http://www.w3.org/2000/svg"
 width="260.000000pt" height="260.000000pt" viewBox="0 0 260.000000 260.000000"
 preserveAspectRatio="xMidYMid meet">
<metadata>
Created by potrace 1.11, written by Peter Selinger 2001-2013
</metadata>
<g transform="translate(0.000000,260.000000) scale(0.100000,-0.100000)"
fill="#000000" stroke="none">
<path d="M150 2391 c0 -5 13 -83 29 -172 17 -90 41 -229 55 -309 14 -80 55
-311 91 -515 l66 -370 102 -100 c292 -284 769 -737 772 -733 3 2 -7 68 -22
145 l-26 141 -333 317 -332 317 -20 111 c-12 62 -37 204 -57 317 -20 113 -50
281 -66 373 -17 93 -29 171 -26 173 2 2 102 -49 223 -114 313 -168 627 -336
636 -340 12 -5 10 31 -9 124 l-16 85 -106 56 c-58 31 -218 117 -356 191 -631
339 -605 327 -605 303z"/>
<path d="M2335 2354 c-50 -25 -126 -65 -170 -89 -163 -87 -505 -270 -646 -346
l-146 -79 -16 -84 c-19 -93 -21 -129 -9 -124 4 2 65 34 135 71 71 38 130 67
132 65 3 -3 -47 -296 -89 -523 -9 -44 -33 -183 -56 -310 -22 -126 -61 -344
-86 -483 -25 -139 -44 -255 -42 -257 1 -2 49 40 105 93 83 79 103 104 108 132
3 19 30 175 60 345 31 171 69 387 86 480 16 94 45 256 64 360 18 105 37 209
40 233 6 39 11 45 57 68 27 14 52 23 54 21 5 -5 -1 -44 -51 -322 -19 -110 -62
-351 -95 -535 -33 -184 -68 -382 -79 -440 -11 -58 -17 -107 -15 -110 3 -2 50
41 106 97 l100 100 28 159 c16 88 43 238 60 334 37 206 81 452 119 673 16 87
30 159 32 160 21 16 82 47 86 43 2 -2 -2 -42 -11 -88 -8 -45 -29 -162 -46
-258 -17 -96 -42 -236 -55 -310 -13 -74 -42 -238 -65 -364 -22 -126 -39 -230
-38 -232 2 -1 49 41 105 94 102 96 103 98 112 157 5 33 26 150 46 260 19 110
49 274 65 365 16 91 50 279 75 418 25 139 45 257 45 263 0 15 -12 11 -105 -37z"/>
</g>
</svg>
